<mxfile host="app.diagrams.net" modified="2021-10-06T09:07:39.786Z" agent="5.0 (Windows NT 10.0; Win64; x64) AppleWebKit/537.36 (KHTML, like Gecko) Chrome/94.0.4606.54 Safari/537.36" etag="cGrwDvBXQNjbSNXPNkXM" version="15.4.3" type="github">
  <diagram id="-HhCpfpyqjP5QVtFNO8r" name="Page-1">
    <mxGraphModel dx="1422" dy="706" grid="1" gridSize="10" guides="1" tooltips="1" connect="1" arrows="1" fold="1" page="1" pageScale="1" pageWidth="827" pageHeight="1169" math="0" shadow="0">
      <root>
        <mxCell id="0" />
        <mxCell id="1" parent="0" />
        <mxCell id="6C0vSYuUfV2ya2O9skL3-1" value="Begin" style="rounded=1;whiteSpace=wrap;html=1;" vertex="1" parent="1">
          <mxGeometry x="390" y="10" width="110" height="40" as="geometry" />
        </mxCell>
        <mxCell id="6C0vSYuUfV2ya2O9skL3-7" value="" style="edgeStyle=orthogonalEdgeStyle;rounded=0;orthogonalLoop=1;jettySize=auto;html=1;" edge="1" parent="1" source="6C0vSYuUfV2ya2O9skL3-3" target="6C0vSYuUfV2ya2O9skL3-6">
          <mxGeometry relative="1" as="geometry" />
        </mxCell>
        <mxCell id="6C0vSYuUfV2ya2O9skL3-3" value="&lt;span&gt;Earnings&lt;/span&gt;" style="shape=parallelogram;perimeter=parallelogramPerimeter;whiteSpace=wrap;html=1;fixedSize=1;" vertex="1" parent="1">
          <mxGeometry x="385" y="90" width="120" height="40" as="geometry" />
        </mxCell>
        <mxCell id="6C0vSYuUfV2ya2O9skL3-5" value="" style="endArrow=classic;html=1;rounded=0;edgeStyle=orthogonalEdgeStyle;entryX=0.5;entryY=0;entryDx=0;entryDy=0;" edge="1" parent="1" source="6C0vSYuUfV2ya2O9skL3-1" target="6C0vSYuUfV2ya2O9skL3-3">
          <mxGeometry width="50" height="50" relative="1" as="geometry">
            <mxPoint x="460" y="240" as="sourcePoint" />
            <mxPoint x="510" y="190" as="targetPoint" />
            <Array as="points">
              <mxPoint x="445" y="80" />
              <mxPoint x="445" y="80" />
            </Array>
          </mxGeometry>
        </mxCell>
        <mxCell id="6C0vSYuUfV2ya2O9skL3-9" value="" style="edgeStyle=orthogonalEdgeStyle;rounded=0;orthogonalLoop=1;jettySize=auto;html=1;exitX=1;exitY=0.5;exitDx=0;exitDy=0;" edge="1" parent="1" source="6C0vSYuUfV2ya2O9skL3-6" target="6C0vSYuUfV2ya2O9skL3-8">
          <mxGeometry relative="1" as="geometry" />
        </mxCell>
        <mxCell id="6C0vSYuUfV2ya2O9skL3-10" value="T" style="edgeLabel;html=1;align=center;verticalAlign=middle;resizable=0;points=[];" vertex="1" connectable="0" parent="6C0vSYuUfV2ya2O9skL3-9">
          <mxGeometry x="-0.3412" y="1" relative="1" as="geometry">
            <mxPoint as="offset" />
          </mxGeometry>
        </mxCell>
        <mxCell id="6C0vSYuUfV2ya2O9skL3-6" value="&lt;span&gt;Earnings&amp;gt;100000&lt;/span&gt;" style="rhombus;whiteSpace=wrap;html=1;" vertex="1" parent="1">
          <mxGeometry x="366.25" y="160" width="157.5" height="80" as="geometry" />
        </mxCell>
        <mxCell id="6C0vSYuUfV2ya2O9skL3-8" value="Tax=Earnings*(35.00/100)" style="rounded=0;whiteSpace=wrap;html=1;" vertex="1" parent="1">
          <mxGeometry x="490" y="280" width="170" height="40" as="geometry" />
        </mxCell>
        <mxCell id="6C0vSYuUfV2ya2O9skL3-15" value="" style="edgeStyle=orthogonalEdgeStyle;rounded=0;orthogonalLoop=1;jettySize=auto;html=1;" edge="1" parent="1" source="6C0vSYuUfV2ya2O9skL3-11" target="6C0vSYuUfV2ya2O9skL3-14">
          <mxGeometry relative="1" as="geometry" />
        </mxCell>
        <mxCell id="6C0vSYuUfV2ya2O9skL3-11" value="&lt;span&gt;Earnings&amp;gt;20000&lt;/span&gt;" style="rhombus;whiteSpace=wrap;html=1;" vertex="1" parent="1">
          <mxGeometry x="201.88" y="260" width="166.25" height="80" as="geometry" />
        </mxCell>
        <mxCell id="6C0vSYuUfV2ya2O9skL3-12" value="" style="endArrow=classic;html=1;rounded=0;edgeStyle=orthogonalEdgeStyle;exitX=0;exitY=0.5;exitDx=0;exitDy=0;" edge="1" parent="1" source="6C0vSYuUfV2ya2O9skL3-6" target="6C0vSYuUfV2ya2O9skL3-11">
          <mxGeometry width="50" height="50" relative="1" as="geometry">
            <mxPoint x="190" y="280" as="sourcePoint" />
            <mxPoint x="240" y="230" as="targetPoint" />
          </mxGeometry>
        </mxCell>
        <mxCell id="6C0vSYuUfV2ya2O9skL3-13" value="F" style="edgeLabel;html=1;align=center;verticalAlign=middle;resizable=0;points=[];" vertex="1" connectable="0" parent="6C0vSYuUfV2ya2O9skL3-12">
          <mxGeometry x="-0.1981" y="2" relative="1" as="geometry">
            <mxPoint as="offset" />
          </mxGeometry>
        </mxCell>
        <mxCell id="6C0vSYuUfV2ya2O9skL3-14" value="Tax=Earnings*(20.00/100)" style="rounded=0;whiteSpace=wrap;html=1;" vertex="1" parent="1">
          <mxGeometry x="200.01" y="390" width="170" height="40" as="geometry" />
        </mxCell>
      </root>
    </mxGraphModel>
  </diagram>
</mxfile>
